<?xml version='1.0' encoding='UTF-8'?>
<svg width="49mm" height="49mm" version="1.1" viewBox="0 0 49 49" xmlns="http://www.w3.org/2000/svg"><path d="M4,4H5V5H4zM5,4H6V5H5zM6,4H7V5H6zM7,4H8V5H7zM8,4H9V5H8zM9,4H10V5H9zM10,4H11V5H10zM12,4H13V5H12zM14,4H15V5H14zM17,4H18V5H17zM20,4H21V5H20zM22,4H23V5H22zM25,4H26V5H25zM26,4H27V5H26zM28,4H29V5H28zM29,4H30V5H29zM32,4H33V5H32zM36,4H37V5H36zM38,4H39V5H38zM39,4H40V5H39zM40,4H41V5H40zM41,4H42V5H41zM42,4H43V5H42zM43,4H44V5H43zM44,4H45V5H44zM4,5H5V6H4zM10,5H11V6H10zM16,5H17V6H16zM17,5H18V6H17zM24,5H25V6H24zM26,5H27V6H26zM27,5H28V6H27zM28,5H29V6H28zM32,5H33V6H32zM33,5H34V6H33zM38,5H39V6H38zM44,5H45V6H44zM4,6H5V7H4zM6,6H7V7H6zM7,6H8V7H7zM8,6H9V7H8zM10,6H11V7H10zM12,6H13V7H12zM14,6H15V7H14zM15,6H16V7H15zM17,6H18V7H17zM18,6H19V7H18zM22,6H23V7H22zM28,6H29V7H28zM30,6H31V7H30zM33,6H34V7H33zM34,6H35V7H34zM38,6H39V7H38zM40,6H41V7H40zM41,6H42V7H41zM42,6H43V7H42zM44,6H45V7H44zM4,7H5V8H4zM6,7H7V8H6zM7,7H8V8H7zM8,7H9V8H8zM10,7H11V8H10zM13,7H14V8H13zM15,7H16V8H15zM16,7H17V8H16zM17,7H18V8H17zM18,7H19V8H18zM20,7H21V8H20zM23,7H24V8H23zM24,7H25V8H24zM25,7H26V8H25zM30,7H31V8H30zM35,7H36V8H35zM36,7H37V8H36zM38,7H39V8H38zM40,7H41V8H40zM41,7H42V8H41zM42,7H43V8H42zM44,7H45V8H44zM4,8H5V9H4zM6,8H7V9H6zM7,8H8V9H7zM8,8H9V9H8zM10,8H11V9H10zM12,8H13V9H12zM13,8H14V9H13zM15,8H16V9H15zM18,8H19V9H18zM20,8H21V9H20zM23,8H24V9H23zM26,8H27V9H26zM27,8H28V9H27zM30,8H31V9H30zM32,8H33V9H32zM34,8H35V9H34zM35,8H36V9H35zM36,8H37V9H36zM38,8H39V9H38zM40,8H41V9H40zM41,8H42V9H41zM42,8H43V9H42zM44,8H45V9H44zM4,9H5V10H4zM10,9H11V10H10zM13,9H14V10H13zM14,9H15V10H14zM15,9H16V10H15zM16,9H17V10H16zM17,9H18V10H17zM18,9H19V10H18zM19,9H20V10H19zM20,9H21V10H20zM21,9H22V10H21zM23,9H24V10H23zM27,9H28V10H27zM29,9H30V10H29zM32,9H33V10H32zM33,9H34V10H33zM36,9H37V10H36zM38,9H39V10H38zM44,9H45V10H44zM4,10H5V11H4zM5,10H6V11H5zM6,10H7V11H6zM7,10H8V11H7zM8,10H9V11H8zM9,10H10V11H9zM10,10H11V11H10zM12,10H13V11H12zM14,10H15V11H14zM16,10H17V11H16zM18,10H19V11H18zM20,10H21V11H20zM22,10H23V11H22zM24,10H25V11H24zM26,10H27V11H26zM28,10H29V11H28zM30,10H31V11H30zM32,10H33V11H32zM34,10H35V11H34zM36,10H37V11H36zM38,10H39V11H38zM39,10H40V11H39zM40,10H41V11H40zM41,10H42V11H41zM42,10H43V11H42zM43,10H44V11H43zM44,10H45V11H44zM12,11H13V12H12zM14,11H15V12H14zM18,11H19V12H18zM20,11H21V12H20zM23,11H24V12H23zM24,11H25V12H24zM26,11H27V12H26zM27,11H28V12H27zM28,11H29V12H28zM30,11H31V12H30zM31,11H32V12H31zM32,11H33V12H32zM35,11H36V12H35zM36,11H37V12H36zM9,12H10V13H9zM10,12H11V13H10zM14,12H15V13H14zM16,12H17V13H16zM17,12H18V13H17zM18,12H19V13H18zM20,12H21V13H20zM24,12H25V13H24zM27,12H28V13H27zM29,12H30V13H29zM33,12H34V13H33zM35,12H36V13H35zM36,12H37V13H36zM38,12H39V13H38zM40,12H41V13H40zM42,12H43V13H42zM44,12H45V13H44zM5,13H6V14H5zM7,13H8V14H7zM11,13H12V14H11zM13,13H14V14H13zM15,13H16V14H15zM16,13H17V14H16zM17,13H18V14H17zM20,13H21V14H20zM21,13H22V14H21zM22,13H23V14H22zM25,13H26V14H25zM27,13H28V14H27zM28,13H29V14H28zM31,13H32V14H31zM33,13H34V14H33zM35,13H36V14H35zM37,13H38V14H37zM40,13H41V14H40zM43,13H44V14H43zM6,14H7V15H6zM7,14H8V15H7zM8,14H9V15H8zM9,14H10V15H9zM10,14H11V15H10zM11,14H12V15H11zM13,14H14V15H13zM19,14H20V15H19zM24,14H25V15H24zM25,14H26V15H25zM29,14H30V15H29zM31,14H32V15H31zM36,14H37V15H36zM38,14H39V15H38zM39,14H40V15H39zM43,14H44V15H43zM6,15H7V16H6zM7,15H8V16H7zM8,15H9V16H8zM9,15H10V16H9zM12,15H13V16H12zM14,15H15V16H14zM15,15H16V16H15zM16,15H17V16H16zM17,15H18V16H17zM18,15H19V16H18zM22,15H23V16H22zM25,15H26V16H25zM26,15H27V16H26zM27,15H28V16H27zM28,15H29V16H28zM29,15H30V16H29zM31,15H32V16H31zM32,15H33V16H32zM35,15H36V16H35zM36,15H37V16H36zM38,15H39V16H38zM39,15H40V16H39zM40,15H41V16H40zM41,15H42V16H41zM44,15H45V16H44zM8,16H9V17H8zM10,16H11V17H10zM12,16H13V17H12zM17,16H18V17H17zM19,16H20V17H19zM21,16H22V17H21zM22,16H23V17H22zM24,16H25V17H24zM25,16H26V17H25zM27,16H28V17H27zM30,16H31V17H30zM31,16H32V17H31zM32,16H33V17H32zM34,16H35V17H34zM39,16H40V17H39zM43,16H44V17H43zM44,16H45V17H44zM4,17H5V18H4zM6,17H7V18H6zM9,17H10V18H9zM11,17H12V18H11zM13,17H14V18H13zM14,17H15V18H14zM16,17H17V18H16zM18,17H19V18H18zM20,17H21V18H20zM22,17H23V18H22zM25,17H26V18H25zM29,17H30V18H29zM30,17H31V18H30zM32,17H33V18H32zM34,17H35V18H34zM39,17H40V18H39zM40,17H41V18H40zM41,17H42V18H41zM43,17H44V18H43zM44,17H45V18H44zM6,18H7V19H6zM7,18H8V19H7zM9,18H10V19H9zM10,18H11V19H10zM11,18H12V19H11zM18,18H19V19H18zM20,18H21V19H20zM22,18H23V19H22zM24,18H25V19H24zM26,18H27V19H26zM27,18H28V19H27zM29,18H30V19H29zM36,18H37V19H36zM37,18H38V19H37zM39,18H40V19H39zM41,18H42V19H41zM4,19H5V20H4zM6,19H7V20H6zM8,19H9V20H8zM11,19H12V20H11zM12,19H13V20H12zM15,19H16V20H15zM16,19H17V20H16zM17,19H18V20H17zM18,19H19V20H18zM19,19H20V20H19zM21,19H22V20H21zM22,19H23V20H22zM23,19H24V20H23zM27,19H28V20H27zM29,19H30V20H29zM31,19H32V20H31zM34,19H35V20H34zM36,19H37V20H36zM37,19H38V20H37zM39,19H40V20H39zM41,19H42V20H41zM42,19H43V20H42zM44,19H45V20H44zM5,20H6V21H5zM6,20H7V21H6zM9,20H10V21H9zM10,20H11V21H10zM13,20H14V21H13zM14,20H15V21H14zM15,20H16V21H15zM16,20H17V21H16zM18,20H19V21H18zM19,20H20V21H19zM20,20H21V21H20zM21,20H22V21H21zM22,20H23V21H22zM23,20H24V21H23zM24,20H25V21H24zM25,20H26V21H25zM26,20H27V21H26zM27,20H28V21H27zM29,20H30V21H29zM30,20H31V21H30zM32,20H33V21H32zM33,20H34V21H33zM34,20H35V21H34zM36,20H37V21H36zM37,20H38V21H37zM39,20H40V21H39zM42,20H43V21H42zM43,20H44V21H43zM4,21H5V22H4zM5,21H6V22H5zM7,21H8V22H7zM8,21H9V22H8zM11,21H12V22H11zM13,21H14V22H13zM14,21H15V22H14zM16,21H17V22H16zM20,21H21V22H20zM21,21H22V22H21zM23,21H24V22H23zM24,21H25V22H24zM25,21H26V22H25zM26,21H27V22H26zM27,21H28V22H27zM28,21H29V22H28zM29,21H30V22H29zM31,21H32V22H31zM35,21H36V22H35zM37,21H38V22H37zM38,21H39V22H38zM39,21H40V22H39zM40,21H41V22H40zM44,21H45V22H44zM4,22H5V23H4zM5,22H6V23H5zM8,22H9V23H8zM10,22H11V23H10zM11,22H12V23H11zM13,22H14V23H13zM14,22H15V23H14zM15,22H16V23H15zM19,22H20V23H19zM21,22H22V23H21zM22,22H23V23H22zM23,22H24V23H23zM24,22H25V23H24zM27,22H28V23H27zM30,22H31V23H30zM31,22H32V23H31zM32,22H33V23H32zM33,22H34V23H33zM34,22H35V23H34zM35,22H36V23H35zM36,22H37V23H36zM37,22H38V23H37zM39,22H40V23H39zM40,22H41V23H40zM44,22H45V23H44zM4,23H5V24H4zM7,23H8V24H7zM9,23H10V24H9zM11,23H12V24H11zM12,23H13V24H12zM13,23H14V24H13zM14,23H15V24H14zM15,23H16V24H15zM16,23H17V24H16zM19,23H20V24H19zM20,23H21V24H20zM24,23H25V24H24zM26,23H27V24H26zM27,23H28V24H27zM28,23H29V24H28zM29,23H30V24H29zM32,23H33V24H32zM35,23H36V24H35zM36,23H37V24H36zM37,23H38V24H37zM38,23H39V24H38zM40,23H41V24H40zM43,23H44V24H43zM44,23H45V24H44zM6,24H7V25H6zM9,24H10V25H9zM10,24H11V25H10zM11,24H12V25H11zM15,24H16V25H15zM16,24H17V25H16zM17,24H18V25H17zM18,24H19V25H18zM22,24H23V25H22zM23,24H24V25H23zM24,24H25V25H24zM25,24H26V25H25zM26,24H27V25H26zM27,24H28V25H27zM30,24H31V25H30zM31,24H32V25H31zM34,24H35V25H34zM37,24H38V25H37zM40,24H41V25H40zM42,24H43V25H42zM43,24H44V25H43zM4,25H5V26H4zM5,25H6V26H5zM7,25H8V26H7zM8,25H9V26H8zM12,25H13V26H12zM13,25H14V26H13zM15,25H16V26H15zM17,25H18V26H17zM20,25H21V26H20zM23,25H24V26H23zM24,25H25V26H24zM26,25H27V26H26zM28,25H29V26H28zM29,25H30V26H29zM30,25H31V26H30zM31,25H32V26H31zM35,25H36V26H35zM40,25H41V26H40zM41,25H42V26H41zM42,25H43V26H42zM5,26H6V27H5zM6,26H7V27H6zM7,26H8V27H7zM10,26H11V27H10zM12,26H13V27H12zM21,26H22V27H21zM24,26H25V27H24zM27,26H28V27H27zM29,26H30V27H29zM31,26H32V27H31zM33,26H34V27H33zM36,26H37V27H36zM37,26H38V27H37zM39,26H40V27H39zM42,26H43V27H42zM6,27H7V28H6zM8,27H9V28H8zM11,27H12V28H11zM14,27H15V28H14zM16,27H17V28H16zM18,27H19V28H18zM21,27H22V28H21zM22,27H23V28H22zM23,27H24V28H23zM24,27H25V28H24zM26,27H27V28H26zM29,27H30V28H29zM30,27H31V28H30zM31,27H32V28H31zM35,27H36V28H35zM39,27H40V28H39zM7,28H8V29H7zM10,28H11V29H10zM11,28H12V29H11zM12,28H13V29H12zM13,28H14V29H13zM14,28H15V29H14zM16,28H17V29H16zM19,28H20V29H19zM20,28H21V29H20zM21,28H22V29H21zM23,28H24V29H23zM27,28H28V29H27zM31,28H32V29H31zM32,28H33V29H32zM35,28H36V29H35zM36,28H37V29H36zM37,28H38V29H37zM38,28H39V29H38zM43,28H44V29H43zM44,28H45V29H44zM5,29H6V30H5zM7,29H8V30H7zM11,29H12V30H11zM15,29H16V30H15zM16,29H17V30H16zM18,29H19V30H18zM21,29H22V30H21zM22,29H23V30H22zM23,29H24V30H23zM25,29H26V30H25zM30,29H31V30H30zM31,29H32V30H31zM32,29H33V30H32zM33,29H34V30H33zM35,29H36V30H35zM37,29H38V30H37zM38,29H39V30H38zM40,29H41V30H40zM41,29H42V30H41zM43,29H44V30H43zM44,29H45V30H44zM7,30H8V31H7zM8,30H9V31H8zM10,30H11V31H10zM11,30H12V31H11zM14,30H15V31H14zM17,30H18V31H17zM20,30H21V31H20zM22,30H23V31H22zM26,30H27V31H26zM28,30H29V31H28zM29,30H30V31H29zM31,30H32V31H31zM33,30H34V31H33zM36,30H37V31H36zM37,30H38V31H37zM40,30H41V31H40zM43,30H44V31H43zM4,31H5V32H4zM7,31H8V32H7zM12,31H13V32H12zM13,31H14V32H13zM14,31H15V32H14zM17,31H18V32H17zM20,31H21V32H20zM21,31H22V32H21zM24,31H25V32H24zM27,31H28V32H27zM28,31H29V32H28zM30,31H31V32H30zM31,31H32V32H31zM35,31H36V32H35zM37,31H38V32H37zM38,31H39V32H38zM39,31H40V32H39zM40,31H41V32H40zM41,31H42V32H41zM42,31H43V32H42zM4,32H5V33H4zM9,32H10V33H9zM10,32H11V33H10zM11,32H12V33H11zM12,32H13V33H12zM17,32H18V33H17zM21,32H22V33H21zM23,32H24V33H23zM24,32H25V33H24zM25,32H26V33H25zM26,32H27V33H26zM27,32H28V33H27zM28,32H29V33H28zM29,32H30V33H29zM32,32H33V33H32zM33,32H34V33H33zM35,32H36V33H35zM37,32H38V33H37zM41,32H42V33H41zM42,32H43V33H42zM4,33H5V34H4zM5,33H6V34H5zM6,33H7V34H6zM9,33H10V34H9zM11,33H12V34H11zM12,33H13V34H12zM13,33H14V34H13zM14,33H15V34H14zM17,33H18V34H17zM20,33H21V34H20zM22,33H23V34H22zM23,33H24V34H23zM25,33H26V34H25zM28,33H29V34H28zM30,33H31V34H30zM34,33H35V34H34zM36,33H37V34H36zM37,33H38V34H37zM39,33H40V34H39zM40,33H41V34H40zM43,33H44V34H43zM44,33H45V34H44zM4,34H5V35H4zM5,34H6V35H5zM6,34H7V35H6zM7,34H8V35H7zM8,34H9V35H8zM10,34H11V35H10zM11,34H12V35H11zM12,34H13V35H12zM15,34H16V35H15zM16,34H17V35H16zM17,34H18V35H17zM18,34H19V35H18zM20,34H21V35H20zM21,34H22V35H21zM22,34H23V35H22zM24,34H25V35H24zM25,34H26V35H25zM27,34H28V35H27zM29,34H30V35H29zM30,34H31V35H30zM31,34H32V35H31zM36,34H37V35H36zM37,34H38V35H37zM41,34H42V35H41zM44,34H45V35H44zM4,35H5V36H4zM6,35H7V36H6zM8,35H9V36H8zM9,35H10V36H9zM11,35H12V36H11zM12,35H13V36H12zM16,35H17V36H16zM17,35H18V36H17zM19,35H20V36H19zM21,35H22V36H21zM22,35H23V36H22zM26,35H27V36H26zM29,35H30V36H29zM34,35H35V36H34zM35,35H36V36H35zM36,35H37V36H36zM38,35H39V36H38zM39,35H40V36H39zM41,35H42V36H41zM43,35H44V36H43zM4,36H5V37H4zM6,36H7V37H6zM8,36H9V37H8zM10,36H11V37H10zM11,36H12V37H11zM12,36H13V37H12zM13,36H14V37H13zM14,36H15V37H14zM17,36H18V37H17zM20,36H21V37H20zM21,36H22V37H21zM23,36H24V37H23zM26,36H27V37H26zM27,36H28V37H27zM31,36H32V37H31zM32,36H33V37H32zM33,36H34V37H33zM34,36H35V37H34zM35,36H36V37H35zM36,36H37V37H36zM37,36H38V37H37zM38,36H39V37H38zM39,36H40V37H39zM40,36H41V37H40zM42,36H43V37H42zM12,37H13V38H12zM14,37H15V38H14zM15,37H16V38H15zM16,37H17V38H16zM20,37H21V38H20zM21,37H22V38H21zM23,37H24V38H23zM24,37H25V38H24zM25,37H26V38H25zM27,37H28V38H27zM28,37H29V38H28zM31,37H32V38H31zM32,37H33V38H32zM33,37H34V38H33zM35,37H36V38H35zM36,37H37V38H36zM40,37H41V38H40zM41,37H42V38H41zM4,38H5V39H4zM5,38H6V39H5zM6,38H7V39H6zM7,38H8V39H7zM8,38H9V39H8zM9,38H10V39H9zM10,38H11V39H10zM13,38H14V39H13zM16,38H17V39H16zM17,38H18V39H17zM20,38H21V39H20zM21,38H22V39H21zM22,38H23V39H22zM25,38H26V39H25zM26,38H27V39H26zM27,38H28V39H27zM29,38H30V39H29zM30,38H31V39H30zM31,38H32V39H31zM32,38H33V39H32zM33,38H34V39H33zM35,38H36V39H35zM36,38H37V39H36zM38,38H39V39H38zM40,38H41V39H40zM41,38H42V39H41zM42,38H43V39H42zM4,39H5V40H4zM10,39H11V40H10zM12,39H13V40H12zM13,39H14V40H13zM14,39H15V40H14zM22,39H23V40H22zM23,39H24V40H23zM26,39H27V40H26zM27,39H28V40H27zM29,39H30V40H29zM31,39H32V40H31zM33,39H34V40H33zM34,39H35V40H34zM36,39H37V40H36zM40,39H41V40H40zM43,39H44V40H43zM4,40H5V41H4zM6,40H7V41H6zM7,40H8V41H7zM8,40H9V41H8zM10,40H11V41H10zM13,40H14V41H13zM20,40H21V41H20zM23,40H24V41H23zM24,40H25V41H24zM25,40H26V41H25zM29,40H30V41H29zM31,40H32V41H31zM33,40H34V41H33zM35,40H36V41H35zM36,40H37V41H36zM37,40H38V41H37zM38,40H39V41H38zM39,40H40V41H39zM40,40H41V41H40zM43,40H44V41H43zM44,40H45V41H44zM4,41H5V42H4zM6,41H7V42H6zM7,41H8V42H7zM8,41H9V42H8zM10,41H11V42H10zM13,41H14V42H13zM14,41H15V42H14zM16,41H17V42H16zM18,41H19V42H18zM22,41H23V42H22zM24,41H25V42H24zM25,41H26V42H25zM26,41H27V42H26zM31,41H32V42H31zM32,41H33V42H32zM34,41H35V42H34zM36,41H37V42H36zM39,41H40V42H39zM41,41H42V42H41zM43,41H44V42H43zM44,41H45V42H44zM4,42H5V43H4zM6,42H7V43H6zM7,42H8V43H7zM8,42H9V43H8zM10,42H11V43H10zM13,42H14V43H13zM15,42H16V43H15zM16,42H17V43H16zM17,42H18V43H17zM20,42H21V43H20zM25,42H26V43H25zM26,42H27V43H26zM29,42H30V43H29zM30,42H31V43H30zM31,42H32V43H31zM32,42H33V43H32zM33,42H34V43H33zM35,42H36V43H35zM37,42H38V43H37zM38,42H39V43H38zM39,42H40V43H39zM40,42H41V43H40zM42,42H43V43H42zM43,42H44V43H43zM4,43H5V44H4zM10,43H11V44H10zM13,43H14V44H13zM14,43H15V44H14zM16,43H17V44H16zM17,43H18V44H17zM21,43H22V44H21zM24,43H25V44H24zM26,43H27V44H26zM27,43H28V44H27zM28,43H29V44H28zM31,43H32V44H31zM37,43H38V44H37zM40,43H41V44H40zM42,43H43V44H42zM44,43H45V44H44zM4,44H5V45H4zM5,44H6V45H5zM6,44H7V45H6zM7,44H8V45H7zM8,44H9V45H8zM9,44H10V45H9zM10,44H11V45H10zM13,44H14V45H13zM15,44H16V45H15zM16,44H17V45H16zM18,44H19V45H18zM21,44H22V45H21zM22,44H23V45H22zM26,44H27V45H26zM27,44H28V45H27zM28,44H29V45H28zM29,44H30V45H29zM31,44H32V45H31zM33,44H34V45H33zM34,44H35V45H34zM35,44H36V45H35zM37,44H38V45H37zM38,44H39V45H38zM39,44H40V45H39zM40,44H41V45H40zM42,44H43V45H42z" id="qr-path" fill="#000000" fill-opacity="1" fill-rule="nonzero" stroke="none" /></svg>